<svg width="151" height="53" viewBox="0 0 151 53" fill="none" xmlns="http://www.w3.org/2000/svg">
<path d="M19.1385 26.4155V33H17.9815V26.4155H19.1385ZM19.3855 24.3485C19.3855 24.4612 19.3617 24.5673 19.314 24.667C19.2707 24.7623 19.21 24.849 19.132 24.927C19.0583 25.0007 18.9695 25.0592 18.8655 25.1025C18.7658 25.1458 18.6597 25.1675 18.547 25.1675C18.4343 25.1675 18.3282 25.1458 18.2285 25.1025C18.1332 25.0592 18.0487 25.0007 17.975 24.927C17.9013 24.849 17.8428 24.7623 17.7995 24.667C17.7562 24.5673 17.7345 24.4612 17.7345 24.3485C17.7345 24.2358 17.7562 24.1297 17.7995 24.03C17.8428 23.926 17.9013 23.8372 17.975 23.7635C18.0487 23.6855 18.1332 23.6248 18.2285 23.5815C18.3282 23.5382 18.4343 23.5165 18.547 23.5165C18.6597 23.5165 18.7658 23.5382 18.8655 23.5815C18.9695 23.6248 19.0583 23.6855 19.132 23.7635C19.21 23.8372 19.2707 23.926 19.314 24.03C19.3617 24.1297 19.3855 24.2358 19.3855 24.3485ZM28.885 23.6855L25.089 33H23.958L20.162 23.6855H21.1695C21.2822 23.6855 21.3732 23.7137 21.4425 23.77C21.5119 23.8263 21.5639 23.8978 21.5985 23.9845L24.2245 30.556C24.2809 30.7033 24.335 30.8637 24.387 31.037C24.4434 31.2103 24.4932 31.3923 24.5365 31.583C24.5799 31.3923 24.6254 31.2103 24.673 31.037C24.7207 30.8637 24.7727 30.7033 24.829 30.556L27.4485 23.9845C27.4745 23.9108 27.5244 23.8437 27.598 23.783C27.676 23.718 27.7692 23.6855 27.8775 23.6855H28.885ZM33.2669 28.9895C33.2669 28.7208 33.2279 28.476 33.1499 28.255C33.0762 28.0297 32.9657 27.8368 32.8184 27.6765C32.6754 27.5118 32.4999 27.3862 32.2919 27.2995C32.0839 27.2085 31.8477 27.163 31.5834 27.163C31.0287 27.163 30.5889 27.3255 30.2639 27.6505C29.9432 27.9712 29.7439 28.4175 29.6659 28.9895H33.2669ZM34.2029 32.077C34.0599 32.2503 33.8887 32.402 33.6894 32.532C33.49 32.6577 33.2755 32.7617 33.0459 32.844C32.8205 32.9263 32.5865 32.987 32.3439 33.026C32.1012 33.0693 31.8607 33.091 31.6224 33.091C31.1674 33.091 30.747 33.0152 30.3614 32.8635C29.98 32.7075 29.6485 32.4822 29.3669 32.1875C29.0895 31.8885 28.8729 31.5202 28.7169 31.0825C28.5609 30.6448 28.4829 30.1422 28.4829 29.5745C28.4829 29.1152 28.5522 28.6862 28.6909 28.2875C28.8339 27.8888 29.0375 27.5443 29.3019 27.254C29.5662 26.9593 29.889 26.7297 30.2704 26.565C30.6517 26.396 31.0807 26.3115 31.5574 26.3115C31.9517 26.3115 32.3157 26.3787 32.6494 26.513C32.9874 26.643 33.2777 26.8337 33.5204 27.085C33.7674 27.332 33.9602 27.6397 34.0989 28.008C34.2375 28.372 34.3069 28.788 34.3069 29.256C34.3069 29.438 34.2874 29.5593 34.2484 29.62C34.2094 29.6807 34.1357 29.711 34.0274 29.711H29.6269C29.6399 30.127 29.6962 30.4888 29.7959 30.7965C29.8999 31.1042 30.0429 31.362 30.2249 31.57C30.4069 31.7737 30.6235 31.9275 30.8749 32.0315C31.1262 32.1312 31.4079 32.181 31.7199 32.181C32.0102 32.181 32.2594 32.1485 32.4674 32.0835C32.6797 32.0142 32.8617 31.9405 33.0134 31.8625C33.165 31.7845 33.2907 31.713 33.3904 31.648C33.4944 31.5787 33.5832 31.544 33.6569 31.544C33.7522 31.544 33.8259 31.5808 33.8779 31.6545L34.2029 32.077ZM36.82 27.371C36.963 27.2107 37.1147 27.0655 37.275 26.9355C37.4354 26.8055 37.6044 26.695 37.782 26.604C37.964 26.5087 38.1547 26.4372 38.354 26.3895C38.5577 26.3375 38.7765 26.3115 39.0105 26.3115C39.3702 26.3115 39.6865 26.3722 39.9595 26.4935C40.2369 26.6105 40.4665 26.7795 40.6485 27.0005C40.8349 27.2172 40.9757 27.4793 41.071 27.787C41.1664 28.0947 41.214 28.4348 41.214 28.8075V33H40.0505V28.8075C40.0505 28.3092 39.9357 27.9235 39.706 27.6505C39.4807 27.3732 39.1362 27.2345 38.6725 27.2345C38.3302 27.2345 38.0095 27.3168 37.7105 27.4815C37.4159 27.6462 37.1429 27.8693 36.8915 28.151V33H35.728V26.4155H36.4235C36.5882 26.4155 36.69 26.4957 36.729 26.656L36.82 27.371ZM44.9097 33.104C44.3897 33.104 43.9888 32.9588 43.7072 32.6685C43.4298 32.3782 43.2912 31.96 43.2912 31.414V27.384H42.4982C42.4288 27.384 42.3703 27.3645 42.3227 27.3255C42.275 27.2822 42.2512 27.2172 42.2512 27.1305V26.669L43.3302 26.5325L43.5967 24.498C43.6097 24.433 43.6378 24.381 43.6812 24.342C43.7288 24.2987 43.7895 24.277 43.8632 24.277H44.4482V26.5455H46.3527V27.384H44.4482V31.336C44.4482 31.6133 44.5153 31.8192 44.6497 31.9535C44.784 32.0878 44.9573 32.155 45.1697 32.155C45.291 32.155 45.395 32.1398 45.4817 32.1095C45.5727 32.0748 45.6507 32.038 45.7157 31.999C45.7807 31.96 45.8348 31.9253 45.8782 31.895C45.9258 31.8603 45.967 31.843 46.0017 31.843C46.0623 31.843 46.1165 31.8798 46.1642 31.9535L46.5022 32.506C46.3028 32.6923 46.0623 32.8397 45.7807 32.948C45.499 33.052 45.2087 33.104 44.9097 33.104ZM52.9619 26.4155V33H52.2729C52.1082 33 52.0042 32.9198 51.9609 32.7595L51.8699 32.051C51.5839 32.3673 51.2632 32.623 50.9079 32.818C50.5525 33.0087 50.1452 33.104 49.6859 33.104C49.3262 33.104 49.0077 33.0455 48.7304 32.9285C48.4574 32.8072 48.2277 32.6382 48.0414 32.4215C47.855 32.2048 47.7142 31.9427 47.6189 31.635C47.5279 31.3273 47.4824 30.9872 47.4824 30.6145V26.4155H48.6394V30.6145C48.6394 31.1128 48.752 31.4985 48.9774 31.7715C49.207 32.0445 49.5559 32.181 50.0239 32.181C50.3662 32.181 50.6847 32.1008 50.9794 31.9405C51.2784 31.7758 51.5535 31.5505 51.8049 31.2645V26.4155H52.9619ZM55.8949 27.735C56.1029 27.2843 56.3585 26.9333 56.6619 26.682C56.9652 26.4263 57.3357 26.2985 57.7734 26.2985C57.912 26.2985 58.0442 26.3137 58.1699 26.344C58.2999 26.3743 58.4147 26.422 58.5144 26.487L58.4299 27.3515C58.4039 27.4598 58.3389 27.514 58.2349 27.514C58.1742 27.514 58.0854 27.501 57.9684 27.475C57.8514 27.449 57.7192 27.436 57.5719 27.436C57.3639 27.436 57.1775 27.4663 57.0129 27.527C56.8525 27.5877 56.7074 27.6787 56.5774 27.8C56.4517 27.917 56.3369 28.0643 56.2329 28.242C56.1332 28.4153 56.0422 28.6147 55.9599 28.84V33H54.7964V26.4155H55.4594C55.585 26.4155 55.6717 26.4393 55.7194 26.487C55.767 26.5347 55.7995 26.617 55.8169 26.734L55.8949 27.735ZM63.6721 28.9895C63.6721 28.7208 63.6331 28.476 63.5551 28.255C63.4815 28.0297 63.371 27.8368 63.2236 27.6765C63.0806 27.5118 62.9051 27.3862 62.6971 27.2995C62.4891 27.2085 62.253 27.163 61.9886 27.163C61.434 27.163 60.9941 27.3255 60.6691 27.6505C60.3485 27.9712 60.1491 28.4175 60.0711 28.9895H63.6721ZM64.6081 32.077C64.4651 32.2503 64.294 32.402 64.0946 32.532C63.8953 32.6577 63.6808 32.7617 63.4511 32.844C63.2258 32.9263 62.9918 32.987 62.7491 33.026C62.5065 33.0693 62.266 33.091 62.0276 33.091C61.5726 33.091 61.1523 33.0152 60.7666 32.8635C60.3853 32.7075 60.0538 32.4822 59.7721 32.1875C59.4948 31.8885 59.2781 31.5202 59.1221 31.0825C58.9661 30.6448 58.8881 30.1422 58.8881 29.5745C58.8881 29.1152 58.9575 28.6862 59.0961 28.2875C59.2391 27.8888 59.4428 27.5443 59.7071 27.254C59.9715 26.9593 60.2943 26.7297 60.6756 26.565C61.057 26.396 61.486 26.3115 61.9626 26.3115C62.357 26.3115 62.721 26.3787 63.0546 26.513C63.3926 26.643 63.683 26.8337 63.9256 27.085C64.1726 27.332 64.3655 27.6397 64.5041 28.008C64.6428 28.372 64.7121 28.788 64.7121 29.256C64.7121 29.438 64.6926 29.5593 64.6536 29.62C64.6146 29.6807 64.541 29.711 64.4326 29.711H60.0321C60.0451 30.127 60.1015 30.4888 60.2011 30.7965C60.3051 31.1042 60.4481 31.362 60.6301 31.57C60.8121 31.7737 61.0288 31.9275 61.2801 32.0315C61.5315 32.1312 61.8131 32.181 62.1251 32.181C62.4155 32.181 62.6646 32.1485 62.8726 32.0835C63.085 32.0142 63.267 31.9405 63.4186 31.8625C63.5703 31.7845 63.696 31.713 63.7956 31.648C63.8996 31.5787 63.9885 31.544 64.0621 31.544C64.1575 31.544 64.2311 31.5808 64.2831 31.6545L64.6081 32.077ZM74.2473 29.542L72.7848 25.7525C72.7415 25.6398 72.696 25.5098 72.6483 25.3625C72.6007 25.2108 72.5552 25.0505 72.5118 24.8815C72.4208 25.2325 72.3277 25.525 72.2323 25.759L70.7698 29.542H74.2473ZM76.8733 33H75.8983C75.7857 33 75.6947 32.9718 75.6253 32.9155C75.556 32.8592 75.504 32.7877 75.4693 32.701L74.5983 30.452H70.4188L69.5478 32.701C69.5218 32.779 69.472 32.8483 69.3983 32.909C69.3247 32.9697 69.2337 33 69.1253 33H68.1503L71.8748 23.6855H73.1488L76.8733 33ZM82.2304 27.5855C82.1958 27.6332 82.1611 27.67 82.1264 27.696C82.0918 27.722 82.0441 27.735 81.9834 27.735C81.9184 27.735 81.8469 27.709 81.7689 27.657C81.6909 27.6007 81.5934 27.54 81.4764 27.475C81.3638 27.41 81.2229 27.3515 81.0539 27.2995C80.8893 27.2432 80.6856 27.215 80.4429 27.215C80.1179 27.215 79.8319 27.2735 79.5849 27.3905C79.3379 27.5032 79.1299 27.6678 78.9609 27.8845C78.7963 28.1012 78.6706 28.3633 78.5839 28.671C78.5016 28.9787 78.4604 29.3232 78.4604 29.7045C78.4604 30.1032 78.5059 30.4585 78.5969 30.7705C78.6879 31.0782 78.8158 31.3382 78.9804 31.5505C79.1494 31.7585 79.3509 31.9188 79.5849 32.0315C79.8233 32.1398 80.0898 32.194 80.3844 32.194C80.6661 32.194 80.8979 32.1615 81.0799 32.0965C81.2619 32.0272 81.4114 31.9513 81.5284 31.869C81.6498 31.7867 81.7494 31.713 81.8274 31.648C81.9098 31.5787 81.9899 31.544 82.0679 31.544C82.1633 31.544 82.2369 31.5808 82.2889 31.6545L82.6139 32.077C82.4709 32.2547 82.3084 32.4063 82.1264 32.532C81.9444 32.6577 81.7473 32.7638 81.5349 32.8505C81.3269 32.9328 81.1081 32.9935 80.8784 33.0325C80.6488 33.0715 80.4148 33.091 80.1764 33.091C79.7648 33.091 79.3813 33.0152 79.0259 32.8635C78.6749 32.7118 78.3694 32.493 78.1094 32.207C77.8494 31.9167 77.6458 31.5613 77.4984 31.141C77.3511 30.7207 77.2774 30.2418 77.2774 29.7045C77.2774 29.2148 77.3446 28.762 77.4789 28.346C77.6176 27.93 77.8169 27.5725 78.0769 27.2735C78.3413 26.9702 78.6641 26.734 79.0454 26.565C79.4311 26.396 79.8731 26.3115 80.3714 26.3115C80.8351 26.3115 81.2424 26.3873 81.5934 26.539C81.9488 26.6863 82.2629 26.8965 82.5359 27.1695L82.2304 27.5855ZM88.3242 27.5855C88.2895 27.6332 88.2549 27.67 88.2202 27.696C88.1855 27.722 88.1379 27.735 88.0772 27.735C88.0122 27.735 87.9407 27.709 87.8627 27.657C87.7847 27.6007 87.6872 27.54 87.5702 27.475C87.4575 27.41 87.3167 27.3515 87.1477 27.2995C86.983 27.2432 86.7794 27.215 86.5367 27.215C86.2117 27.215 85.9257 27.2735 85.6787 27.3905C85.4317 27.5032 85.2237 27.6678 85.0547 27.8845C84.89 28.1012 84.7644 28.3633 84.6777 28.671C84.5954 28.9787 84.5542 29.3232 84.5542 29.7045C84.5542 30.1032 84.5997 30.4585 84.6907 30.7705C84.7817 31.0782 84.9095 31.3382 85.0742 31.5505C85.2432 31.7585 85.4447 31.9188 85.6787 32.0315C85.917 32.1398 86.1835 32.194 86.4782 32.194C86.7599 32.194 86.9917 32.1615 87.1737 32.0965C87.3557 32.0272 87.5052 31.9513 87.6222 31.869C87.7435 31.7867 87.8432 31.713 87.9212 31.648C88.0035 31.5787 88.0837 31.544 88.1617 31.544C88.257 31.544 88.3307 31.5808 88.3827 31.6545L88.7077 32.077C88.5647 32.2547 88.4022 32.4063 88.2202 32.532C88.0382 32.6577 87.841 32.7638 87.6287 32.8505C87.4207 32.9328 87.2019 32.9935 86.9722 33.0325C86.7425 33.0715 86.5085 33.091 86.2702 33.091C85.8585 33.091 85.475 33.0152 85.1197 32.8635C84.7687 32.7118 84.4632 32.493 84.2032 32.207C83.9432 31.9167 83.7395 31.5613 83.5922 31.141C83.4449 30.7207 83.3712 30.2418 83.3712 29.7045C83.3712 29.2148 83.4384 28.762 83.5727 28.346C83.7114 27.93 83.9107 27.5725 84.1707 27.2735C84.435 26.9702 84.7579 26.734 85.1392 26.565C85.5249 26.396 85.9669 26.3115 86.4652 26.3115C86.9289 26.3115 87.3362 26.3873 87.6872 26.539C88.0425 26.6863 88.3567 26.8965 88.6297 27.1695L88.3242 27.5855ZM94.2424 28.9895C94.2424 28.7208 94.2034 28.476 94.1254 28.255C94.0518 28.0297 93.9413 27.8368 93.7939 27.6765C93.6509 27.5118 93.4754 27.3862 93.2674 27.2995C93.0594 27.2085 92.8233 27.163 92.5589 27.163C92.0043 27.163 91.5644 27.3255 91.2394 27.6505C90.9188 27.9712 90.7194 28.4175 90.6414 28.9895H94.2424ZM95.1784 32.077C95.0354 32.2503 94.8643 32.402 94.6649 32.532C94.4656 32.6577 94.2511 32.7617 94.0214 32.844C93.7961 32.9263 93.5621 32.987 93.3194 33.026C93.0768 33.0693 92.8363 33.091 92.5979 33.091C92.1429 33.091 91.7226 33.0152 91.3369 32.8635C90.9556 32.7075 90.6241 32.4822 90.3424 32.1875C90.0651 31.8885 89.8484 31.5202 89.6924 31.0825C89.5364 30.6448 89.4584 30.1422 89.4584 29.5745C89.4584 29.1152 89.5278 28.6862 89.6664 28.2875C89.8094 27.8888 90.0131 27.5443 90.2774 27.254C90.5418 26.9593 90.8646 26.7297 91.2459 26.565C91.6273 26.396 92.0563 26.3115 92.5329 26.3115C92.9273 26.3115 93.2913 26.3787 93.6249 26.513C93.9629 26.643 94.2533 26.8337 94.4959 27.085C94.7429 27.332 94.9358 27.6397 95.0744 28.008C95.2131 28.372 95.2824 28.788 95.2824 29.256C95.2824 29.438 95.2629 29.5593 95.2239 29.62C95.1849 29.6807 95.1113 29.711 95.0029 29.711H90.6024C90.6154 30.127 90.6718 30.4888 90.7714 30.7965C90.8754 31.1042 91.0184 31.362 91.2004 31.57C91.3824 31.7737 91.5991 31.9275 91.8504 32.0315C92.1018 32.1312 92.3834 32.181 92.6954 32.181C92.9858 32.181 93.2349 32.1485 93.4429 32.0835C93.6553 32.0142 93.8373 31.9405 93.9889 31.8625C94.1406 31.7845 94.2663 31.713 94.3659 31.648C94.4699 31.5787 94.5588 31.544 94.6324 31.544C94.7278 31.544 94.8014 31.5808 94.8534 31.6545L95.1784 32.077ZM97.8996 23.4255V33H96.7426V23.4255H97.8996ZM104.183 28.9895C104.183 28.7208 104.144 28.476 104.066 28.255C103.992 28.0297 103.882 27.8368 103.734 27.6765C103.591 27.5118 103.416 27.3862 103.208 27.2995C103 27.2085 102.764 27.163 102.499 27.163C101.945 27.163 101.505 27.3255 101.18 27.6505C100.859 27.9712 100.66 28.4175 100.582 28.9895H104.183ZM105.119 32.077C104.976 32.2503 104.805 32.402 104.605 32.532C104.406 32.6577 104.192 32.7617 103.962 32.844C103.737 32.9263 103.503 32.987 103.26 33.026C103.017 33.0693 102.777 33.091 102.538 33.091C102.083 33.091 101.663 33.0152 101.277 32.8635C100.896 32.7075 100.565 32.4822 100.283 32.1875C100.006 31.8885 99.7889 31.5202 99.6329 31.0825C99.4769 30.6448 99.3989 30.1422 99.3989 29.5745C99.3989 29.1152 99.4682 28.6862 99.6069 28.2875C99.7499 27.8888 99.9535 27.5443 100.218 27.254C100.482 26.9593 100.805 26.7297 101.186 26.565C101.568 26.396 101.997 26.3115 102.473 26.3115C102.868 26.3115 103.232 26.3787 103.565 26.513C103.903 26.643 104.194 26.8337 104.436 27.085C104.683 27.332 104.876 27.6397 105.015 28.008C105.154 28.372 105.223 28.788 105.223 29.256C105.223 29.438 105.203 29.5593 105.164 29.62C105.125 29.6807 105.052 29.711 104.943 29.711H100.543C100.556 30.127 100.612 30.4888 100.712 30.7965C100.816 31.1042 100.959 31.362 101.141 31.57C101.323 31.7737 101.54 31.9275 101.791 32.0315C102.042 32.1312 102.324 32.181 102.636 32.181C102.926 32.181 103.175 32.1485 103.383 32.0835C103.596 32.0142 103.778 31.9405 103.929 31.8625C104.081 31.7845 104.207 31.713 104.306 31.648C104.41 31.5787 104.499 31.544 104.573 31.544C104.668 31.544 104.742 31.5808 104.794 31.6545L105.119 32.077ZM107.743 27.735C107.951 27.2843 108.206 26.9333 108.51 26.682C108.813 26.4263 109.183 26.2985 109.621 26.2985C109.76 26.2985 109.892 26.3137 110.018 26.344C110.148 26.3743 110.262 26.422 110.362 26.487L110.278 27.3515C110.252 27.4598 110.187 27.514 110.083 27.514C110.022 27.514 109.933 27.501 109.816 27.475C109.699 27.449 109.567 27.436 109.42 27.436C109.212 27.436 109.025 27.4663 108.861 27.527C108.7 27.5877 108.555 27.6787 108.425 27.8C108.299 27.917 108.185 28.0643 108.081 28.242C107.981 28.4153 107.89 28.6147 107.808 28.84V33H106.644V26.4155H107.307C107.433 26.4155 107.519 26.4393 107.567 26.487C107.615 26.5347 107.647 26.617 107.665 26.734L107.743 27.735ZM114.846 30.036C114.313 30.0533 113.858 30.0967 113.481 30.166C113.109 30.231 112.803 30.3177 112.565 30.426C112.331 30.5343 112.16 30.6622 112.051 30.8095C111.947 30.9568 111.895 31.1215 111.895 31.3035C111.895 31.4768 111.923 31.6263 111.98 31.752C112.036 31.8777 112.112 31.9817 112.207 32.064C112.307 32.142 112.422 32.2005 112.552 32.2395C112.686 32.2742 112.829 32.2915 112.981 32.2915C113.184 32.2915 113.371 32.272 113.54 32.233C113.709 32.1897 113.867 32.129 114.014 32.051C114.166 31.973 114.309 31.8798 114.443 31.7715C114.582 31.6632 114.716 31.5397 114.846 31.401V30.036ZM111.109 27.345C111.473 26.994 111.865 26.7318 112.285 26.5585C112.706 26.3852 113.171 26.2985 113.683 26.2985C114.051 26.2985 114.378 26.3592 114.664 26.4805C114.95 26.6018 115.191 26.7708 115.386 26.9875C115.581 27.2042 115.728 27.4663 115.828 27.774C115.927 28.0817 115.977 28.4197 115.977 28.788V33H115.464C115.351 33 115.264 32.9827 115.204 32.948C115.143 32.909 115.095 32.8353 115.061 32.727L114.931 32.103C114.757 32.2633 114.588 32.4063 114.424 32.532C114.259 32.6533 114.086 32.7573 113.904 32.844C113.722 32.9263 113.527 32.9892 113.319 33.0325C113.115 33.0802 112.888 33.104 112.636 33.104C112.381 33.104 112.14 33.0693 111.915 33C111.689 32.9263 111.492 32.818 111.323 32.675C111.159 32.532 111.026 32.3522 110.927 32.1355C110.831 31.9145 110.784 31.6545 110.784 31.3555C110.784 31.0955 110.855 30.8463 110.998 30.608C111.141 30.3653 111.373 30.1508 111.694 29.9645C112.014 29.7782 112.433 29.6265 112.948 29.5095C113.464 29.3882 114.097 29.3188 114.846 29.3015V28.788C114.846 28.2767 114.736 27.891 114.515 27.631C114.294 27.3667 113.971 27.2345 113.546 27.2345C113.26 27.2345 113.02 27.2713 112.825 27.345C112.634 27.4143 112.467 27.4945 112.324 27.5855C112.186 27.6722 112.064 27.7523 111.96 27.826C111.861 27.8953 111.761 27.93 111.661 27.93C111.583 27.93 111.516 27.9105 111.46 27.8715C111.403 27.8282 111.356 27.7762 111.317 27.7155L111.109 27.345ZM119.672 33.104C119.152 33.104 118.752 32.9588 118.47 32.6685C118.193 32.3782 118.054 31.96 118.054 31.414V27.384H117.261C117.192 27.384 117.133 27.3645 117.085 27.3255C117.038 27.2822 117.014 27.2172 117.014 27.1305V26.669L118.093 26.5325L118.359 24.498C118.372 24.433 118.401 24.381 118.444 24.342C118.492 24.2987 118.552 24.277 118.626 24.277H119.211V26.5455H121.115V27.384H119.211V31.336C119.211 31.6133 119.278 31.8192 119.412 31.9535C119.547 32.0878 119.72 32.155 119.932 32.155C120.054 32.155 120.158 32.1398 120.244 32.1095C120.335 32.0748 120.413 32.038 120.478 31.999C120.543 31.96 120.598 31.9253 120.641 31.895C120.689 31.8603 120.73 31.843 120.764 31.843C120.825 31.843 120.879 31.8798 120.927 31.9535L121.265 32.506C121.066 32.6923 120.825 32.8397 120.543 32.948C120.262 33.052 119.971 33.104 119.672 33.104ZM125.047 26.3115C125.528 26.3115 125.962 26.3917 126.347 26.552C126.733 26.7123 127.062 26.9398 127.335 27.2345C127.608 27.5292 127.816 27.8867 127.959 28.307C128.107 28.723 128.18 29.1888 128.18 29.7045C128.18 30.2245 128.107 30.6925 127.959 31.1085C127.816 31.5245 127.608 31.8798 127.335 32.1745C127.062 32.4692 126.733 32.6967 126.347 32.857C125.962 33.013 125.528 33.091 125.047 33.091C124.562 33.091 124.124 33.013 123.734 32.857C123.349 32.6967 123.019 32.4692 122.746 32.1745C122.473 31.8798 122.263 31.5245 122.116 31.1085C121.973 30.6925 121.901 30.2245 121.901 29.7045C121.901 29.1888 121.973 28.723 122.116 28.307C122.263 27.8867 122.473 27.5292 122.746 27.2345C123.019 26.9398 123.349 26.7123 123.734 26.552C124.124 26.3917 124.562 26.3115 125.047 26.3115ZM125.047 32.1875C125.697 32.1875 126.183 31.9708 126.503 31.5375C126.824 31.0998 126.984 30.491 126.984 29.711C126.984 28.9267 126.824 28.3157 126.503 27.878C126.183 27.4403 125.697 27.2215 125.047 27.2215C124.718 27.2215 124.43 27.2778 124.183 27.3905C123.94 27.5032 123.737 27.6657 123.572 27.878C123.412 28.0903 123.29 28.3525 123.208 28.6645C123.13 28.9722 123.091 29.321 123.091 29.711C123.091 30.491 123.251 31.0998 123.572 31.5375C123.897 31.9708 124.389 32.1875 125.047 32.1875ZM130.746 27.735C130.954 27.2843 131.21 26.9333 131.513 26.682C131.817 26.4263 132.187 26.2985 132.625 26.2985C132.764 26.2985 132.896 26.3137 133.021 26.344C133.151 26.3743 133.266 26.422 133.366 26.487L133.281 27.3515C133.255 27.4598 133.19 27.514 133.086 27.514C133.026 27.514 132.937 27.501 132.82 27.475C132.703 27.449 132.571 27.436 132.423 27.436C132.215 27.436 132.029 27.4663 131.864 27.527C131.704 27.5877 131.559 27.6787 131.429 27.8C131.303 27.917 131.188 28.0643 131.084 28.242C130.985 28.4153 130.894 28.6147 130.811 28.84V33H129.648V26.4155H130.311C130.437 26.4155 130.523 26.4393 130.571 26.487C130.619 26.5347 130.651 26.617 130.668 26.734L130.746 27.735Z" fill="#585858"/>
<path d="M60.5415 13H59.1505V3.666H60.5415V13ZM68.1878 11.8365V13H62.8448V3.666H64.2293V11.8365H68.1878ZM74.8783 11.8365V13H69.5353V3.666H70.9198V11.8365H74.8783ZM77.6167 13H76.2257V3.666H77.6167V13ZM87.564 3.666V13H86.862C86.7537 13 86.6627 12.9805 86.589 12.9415C86.5197 12.9025 86.4482 12.8397 86.3745 12.753L81.103 5.9345C81.1117 6.0515 81.1182 6.16633 81.1225 6.279C81.1312 6.39167 81.1355 6.49783 81.1355 6.5975V13H79.92V3.666H80.635C80.7564 3.666 80.8474 3.68117 80.908 3.7115C80.9687 3.7375 81.0359 3.80033 81.1095 3.9L86.394 10.725C86.381 10.5993 86.3702 10.478 86.3615 10.361C86.3572 10.2397 86.355 10.127 86.355 10.023V3.666H87.564ZM98.5702 8.333C98.5702 9.03067 98.4575 9.672 98.2322 10.257C98.0112 10.8377 97.697 11.3403 97.2897 11.765C96.8823 12.1853 96.3948 12.5125 95.8272 12.7465C95.2595 12.9805 94.629 13.0975 93.9357 13.0975C93.2467 13.0975 92.6162 12.9805 92.0442 12.7465C91.4765 12.5125 90.989 12.1853 90.5817 11.765C90.1787 11.3403 89.8645 10.8377 89.6392 10.257C89.4138 9.672 89.3012 9.03067 89.3012 8.333C89.3012 7.63967 89.4138 7.0005 89.6392 6.4155C89.8645 5.8305 90.1787 5.32783 90.5817 4.9075C90.989 4.48283 91.4765 4.1535 92.0442 3.9195C92.6162 3.68117 93.2467 3.562 93.9357 3.562C94.629 3.562 95.2595 3.68117 95.8272 3.9195C96.3948 4.1535 96.8823 4.48283 97.2897 4.9075C97.697 5.32783 98.0112 5.8305 98.2322 6.4155C98.4575 7.0005 98.5702 7.63967 98.5702 8.333ZM97.1532 8.333C97.1532 7.77833 97.0773 7.28 96.9257 6.838C96.774 6.396 96.5573 6.02117 96.2757 5.7135C95.9983 5.40583 95.6603 5.16967 95.2617 5.005C94.8673 4.84033 94.4253 4.758 93.9357 4.758C93.446 4.758 93.0018 4.84033 92.6032 5.005C92.2088 5.16967 91.8708 5.40583 91.5892 5.7135C91.3075 6.02117 91.0908 6.396 90.9392 6.838C90.7875 7.28 90.7117 7.77833 90.7117 8.333C90.7117 8.892 90.7875 9.3925 90.9392 9.8345C91.0908 10.2722 91.3075 10.6448 91.5892 10.9525C91.8708 11.2602 92.2088 11.4963 92.6032 11.661C93.0018 11.8213 93.446 11.9015 93.9357 11.9015C94.4253 11.9015 94.8673 11.8213 95.2617 11.661C95.6603 11.4963 95.9983 11.2602 96.2757 10.9525C96.5573 10.6448 96.774 10.2722 96.9257 9.8345C97.0773 9.3925 97.1532 8.892 97.1532 8.333ZM101.7 13H100.309V3.666H101.7V13ZM108.833 5.187C108.789 5.26067 108.744 5.31483 108.696 5.3495C108.648 5.38417 108.588 5.4015 108.514 5.4015C108.436 5.4015 108.347 5.36683 108.248 5.2975C108.148 5.22383 108.022 5.14367 107.871 5.057C107.723 4.966 107.546 4.88583 107.338 4.8165C107.13 4.74283 106.88 4.706 106.59 4.706C106.317 4.706 106.077 4.74283 105.869 4.8165C105.665 4.88583 105.494 4.98333 105.355 5.109C105.216 5.23033 105.11 5.3755 105.037 5.5445C104.967 5.70917 104.933 5.889 104.933 6.084C104.933 6.33533 104.995 6.54333 105.121 6.708C105.251 6.87267 105.42 7.0135 105.628 7.1305C105.836 7.2475 106.072 7.34933 106.337 7.436C106.601 7.52267 106.872 7.61367 107.149 7.709C107.426 7.8 107.697 7.90617 107.962 8.0275C108.226 8.14883 108.462 8.30267 108.67 8.489C108.878 8.671 109.045 8.89633 109.171 9.165C109.301 9.42933 109.366 9.75433 109.366 10.14C109.366 10.5517 109.294 10.9373 109.151 11.297C109.012 11.6567 108.809 11.9708 108.54 12.2395C108.271 12.5082 107.94 12.7205 107.546 12.8765C107.156 13.0282 106.711 13.104 106.213 13.104C105.914 13.104 105.624 13.0737 105.342 13.013C105.06 12.9567 104.794 12.8765 104.543 12.7725C104.291 12.6642 104.055 12.5363 103.834 12.389C103.617 12.2373 103.422 12.0683 103.249 11.882L103.646 11.219C103.685 11.167 103.73 11.1237 103.782 11.089C103.838 11.0543 103.901 11.037 103.971 11.037C104.062 11.037 104.166 11.0847 104.283 11.18C104.404 11.2753 104.551 11.3815 104.725 11.4985C104.902 11.6112 105.112 11.7152 105.355 11.8105C105.602 11.9058 105.901 11.9535 106.252 11.9535C106.538 11.9535 106.794 11.9167 107.019 11.843C107.244 11.765 107.433 11.6567 107.585 11.518C107.741 11.375 107.86 11.2038 107.942 11.0045C108.024 10.8052 108.066 10.5842 108.066 10.3415C108.066 10.0685 108.003 9.84533 107.877 9.672C107.751 9.49867 107.585 9.3535 107.377 9.2365C107.169 9.1195 106.932 9.01983 106.668 8.9375C106.404 8.85517 106.133 8.77067 105.856 8.684C105.578 8.593 105.307 8.489 105.043 8.372C104.779 8.255 104.543 8.10333 104.335 7.917C104.127 7.72633 103.96 7.49017 103.834 7.2085C103.708 6.9225 103.646 6.5715 103.646 6.1555C103.646 5.82183 103.711 5.499 103.841 5.187C103.971 4.875 104.159 4.59983 104.406 4.3615C104.657 4.11883 104.965 3.926 105.329 3.783C105.693 3.63567 106.109 3.562 106.577 3.562C107.101 3.562 107.582 3.6465 108.02 3.8155C108.462 3.98017 108.846 4.2185 109.171 4.5305L108.833 5.187Z" fill="#585858"/>
<path d="M52 1H42V3.625H44.64V12.375H42V15H52V12.375H49.5V3.625H52V1Z" fill="#585858" stroke="black" stroke-width="0.2"/>
<path d="M3.333 47.205C3.63733 47.205 3.905 47.1647 4.136 47.084C4.37067 47.0033 4.56683 46.8915 4.7245 46.7485C4.88583 46.6018 5.00683 46.4277 5.0875 46.226C5.16817 46.0243 5.2085 45.8025 5.2085 45.5605C5.2085 45.0582 5.05267 44.6658 4.741 44.3835C4.433 44.1012 3.96367 43.96 3.333 43.96H2.068V47.205H3.333ZM3.333 43.1185C3.83167 43.1185 4.26433 43.1772 4.631 43.2945C5.00133 43.4082 5.3075 43.5713 5.5495 43.784C5.7915 43.9967 5.97117 44.2533 6.0885 44.554C6.2095 44.8547 6.27 45.1902 6.27 45.5605C6.27 45.9272 6.20583 46.2627 6.0775 46.567C5.94917 46.8713 5.76033 47.1335 5.511 47.3535C5.26533 47.5735 4.95917 47.7458 4.5925 47.8705C4.2295 47.9915 3.80967 48.052 3.333 48.052H2.068V51H1.0065V43.1185H3.333ZM14.8949 47.062C14.8949 47.6523 14.8014 48.195 14.6144 48.69C14.4274 49.1813 14.1634 49.6048 13.8224 49.9605C13.4814 50.3162 13.0708 50.593 12.5904 50.791C12.1138 50.9853 11.5858 51.0825 11.0064 51.0825C10.4271 51.0825 9.89911 50.9853 9.42245 50.791C8.94578 50.593 8.53695 50.3162 8.19595 49.9605C7.85495 49.6048 7.59095 49.1813 7.40395 48.69C7.21695 48.195 7.12345 47.6523 7.12345 47.062C7.12345 46.4717 7.21695 45.9308 7.40395 45.4395C7.59095 44.9445 7.85495 44.5192 8.19595 44.1635C8.53695 43.8042 8.94578 43.5255 9.42245 43.3275C9.89911 43.1295 10.4271 43.0305 11.0064 43.0305C11.5858 43.0305 12.1138 43.1295 12.5904 43.3275C13.0708 43.5255 13.4814 43.8042 13.8224 44.1635C14.1634 44.5192 14.4274 44.9445 14.6144 45.4395C14.8014 45.9308 14.8949 46.4717 14.8949 47.062ZM13.8004 47.062C13.8004 46.578 13.7344 46.1435 13.6024 45.7585C13.4704 45.3735 13.2834 45.049 13.0414 44.785C12.7994 44.5173 12.5061 44.312 12.1614 44.169C11.8168 44.026 11.4318 43.9545 11.0064 43.9545C10.5848 43.9545 10.2016 44.026 9.85695 44.169C9.51228 44.312 9.21711 44.5173 8.97145 44.785C8.72945 45.049 8.54245 45.3735 8.41045 45.7585C8.27845 46.1435 8.21245 46.578 8.21245 47.062C8.21245 47.546 8.27845 47.9805 8.41045 48.3655C8.54245 48.7468 8.72945 49.0713 8.97145 49.339C9.21711 49.603 9.51228 49.8065 9.85695 49.9495C10.2016 50.0888 10.5848 50.1585 11.0064 50.1585C11.4318 50.1585 11.8168 50.0888 12.1614 49.9495C12.5061 49.8065 12.7994 49.603 13.0414 49.339C13.2834 49.0713 13.4704 48.7468 13.6024 48.3655C13.7344 47.9805 13.8004 47.546 13.8004 47.062ZM26.5169 43.1185L24.0584 51H23.1014L21.1049 44.9885C21.0865 44.9298 21.0682 44.8675 21.0499 44.8015C21.0352 44.7355 21.0187 44.6658 21.0004 44.5925C20.982 44.6658 20.9637 44.7355 20.9454 44.8015C20.927 44.8675 20.9087 44.9298 20.8904 44.9885L18.8829 51H17.9259L15.4674 43.1185H16.3529C16.4482 43.1185 16.527 43.1423 16.5894 43.19C16.6554 43.2377 16.6975 43.2982 16.7159 43.3715L18.3439 48.8495C18.3695 48.9485 18.3934 49.0548 18.4154 49.1685C18.441 49.2822 18.4649 49.4032 18.4869 49.5315C18.5125 49.4032 18.5382 49.2822 18.5639 49.1685C18.5932 49.0512 18.6244 48.9448 18.6574 48.8495L20.5109 43.3715C20.5329 43.3092 20.575 43.2523 20.6374 43.201C20.7034 43.146 20.7822 43.1185 20.8739 43.1185H21.1819C21.2772 43.1185 21.3542 43.1423 21.4129 43.19C21.4715 43.2377 21.5155 43.2982 21.5449 43.3715L23.3929 48.8495C23.4259 48.9448 23.4552 49.0475 23.4809 49.1575C23.5102 49.2675 23.5377 49.383 23.5634 49.504C23.5817 49.383 23.6019 49.2675 23.6239 49.1575C23.6459 49.0475 23.6697 48.9448 23.6954 48.8495L25.3289 43.3715C25.3472 43.3055 25.3875 43.2468 25.4499 43.1955C25.5159 43.1442 25.5947 43.1185 25.6864 43.1185H26.5169ZM32.5521 50.131L32.5466 51H27.6901V43.1185H32.5466V43.9875H28.7571V46.6055H31.8261V47.4415H28.7571V50.131H32.5521ZM36.2222 46.9355C36.5302 46.9355 36.8016 46.8988 37.0362 46.8255C37.2746 46.7485 37.4726 46.6422 37.6302 46.5065C37.7916 46.3672 37.9126 46.2022 37.9932 46.0115C38.0739 45.8208 38.1142 45.61 38.1142 45.379C38.1142 44.9097 37.9602 44.5558 37.6522 44.3175C37.3442 44.0792 36.8822 43.96 36.2662 43.96H35.1002V46.9355H36.2222ZM39.8632 51H38.9172C38.7229 51 38.5799 50.9248 38.4882 50.7745L36.4422 47.9585C36.3799 47.8705 36.3121 47.8082 36.2387 47.7715C36.1691 47.7312 36.0591 47.711 35.9087 47.711H35.1002V51H34.0387V43.1185H36.2662C36.7649 43.1185 37.1957 43.1698 37.5587 43.2725C37.9217 43.3715 38.2206 43.5163 38.4552 43.707C38.6936 43.8977 38.8696 44.1287 38.9832 44.4C39.0969 44.6677 39.1537 44.9683 39.1537 45.302C39.1537 45.5807 39.1097 45.841 39.0217 46.083C38.9337 46.325 38.8054 46.5432 38.6367 46.7375C38.4717 46.9282 38.2682 47.0913 38.0262 47.227C37.7879 47.3627 37.5166 47.4653 37.2122 47.535C37.3479 47.612 37.4652 47.7238 37.5642 47.8705L39.8632 51ZM45.7972 50.131L45.7917 51H40.9352V43.1185H45.7917V43.9875H42.0022V46.6055H45.0712V47.4415H42.0022V50.131H45.7972ZM54.1148 47.062C54.1148 47.6523 54.0213 48.1895 53.8343 48.6735C53.6473 49.1575 53.3833 49.5718 53.0423 49.9165C52.7013 50.2612 52.2907 50.5288 51.8103 50.7195C51.3337 50.9065 50.8057 51 50.2263 51H47.2838V43.1185H50.2263C50.8057 43.1185 51.3337 43.2138 51.8103 43.4045C52.2907 43.5915 52.7013 43.8592 53.0423 44.2075C53.3833 44.5522 53.6473 44.9665 53.8343 45.4505C54.0213 45.9345 54.1148 46.4717 54.1148 47.062ZM53.0203 47.062C53.0203 46.578 52.9543 46.1453 52.8223 45.764C52.6903 45.3827 52.5033 45.06 52.2613 44.796C52.0193 44.532 51.726 44.3303 51.3813 44.191C51.0367 44.0517 50.6517 43.982 50.2263 43.982H48.3508V50.1365H50.2263C50.6517 50.1365 51.0367 50.0668 51.3813 49.9275C51.726 49.7882 52.0193 49.5883 52.2613 49.328C52.5033 49.064 52.6903 48.7413 52.8223 48.36C52.9543 47.9787 53.0203 47.546 53.0203 47.062ZM61.233 50.153C61.5373 50.153 61.7995 50.1182 62.0195 50.0485C62.2395 49.9788 62.4191 49.8817 62.5585 49.757C62.7015 49.6287 62.806 49.4783 62.872 49.306C62.938 49.13 62.971 48.9375 62.971 48.7285C62.971 48.3215 62.8261 48.0007 62.5365 47.766C62.2468 47.5277 61.8123 47.4085 61.233 47.4085H59.528V50.153H61.233ZM59.528 43.96V46.6495H60.936C61.2366 46.6495 61.497 46.6165 61.717 46.5505C61.9406 46.4845 62.124 46.3928 62.267 46.2755C62.4136 46.1582 62.5218 46.017 62.5915 45.852C62.6611 45.6833 62.696 45.5 62.696 45.302C62.696 44.8363 62.5566 44.4972 62.278 44.2845C61.9993 44.0682 61.5666 43.96 60.98 43.96H59.528ZM60.98 43.1185C61.464 43.1185 61.8801 43.1662 62.2285 43.2615C62.5805 43.3568 62.8683 43.4925 63.092 43.6685C63.3193 43.8445 63.4861 44.0608 63.5925 44.3175C63.6988 44.5705 63.752 44.8565 63.752 45.1755C63.752 45.3698 63.7208 45.5568 63.6585 45.7365C63.5998 45.9125 63.51 46.0775 63.389 46.2315C63.268 46.3855 63.114 46.5248 62.927 46.6495C62.7436 46.7705 62.5273 46.8695 62.278 46.9465C62.8573 47.0565 63.2918 47.2637 63.5815 47.568C63.8748 47.8687 64.0215 48.2647 64.0215 48.756C64.0215 49.0897 63.9591 49.394 63.8345 49.669C63.7135 49.944 63.5338 50.1805 63.2955 50.3785C63.0608 50.5765 62.7711 50.7305 62.4265 50.8405C62.0818 50.9468 61.6895 51 61.2495 51H58.4665V43.1185H60.98ZM68.279 47.8595V51H67.212V47.8595L64.3245 43.1185H65.2595C65.3548 43.1185 65.43 43.1423 65.485 43.19C65.54 43.234 65.5876 43.2927 65.628 43.366L67.432 46.4295C67.498 46.5578 67.5585 46.6788 67.6135 46.7925C67.6685 46.9025 67.7161 47.0143 67.7565 47.128C67.7968 47.0143 67.8426 46.9025 67.894 46.7925C67.9453 46.6788 68.0021 46.5578 68.0645 46.4295L69.863 43.366C69.896 43.3037 69.9418 43.2468 70.0005 43.1955C70.0591 43.1442 70.1343 43.1185 70.226 43.1185H71.1665L68.279 47.8595ZM80.971 47.2105V50.2355C80.575 50.5215 80.1515 50.736 79.7005 50.879C79.2532 51.0183 78.7618 51.088 78.2265 51.088C77.5922 51.088 77.0202 50.9908 76.5105 50.7965C76.0008 50.5985 75.5645 50.3235 75.2015 49.9715C74.8422 49.6158 74.5653 49.1905 74.371 48.6955C74.1767 48.2005 74.0795 47.656 74.0795 47.062C74.0795 46.4607 74.173 45.9125 74.36 45.4175C74.5507 44.9225 74.8202 44.499 75.1685 44.147C75.5168 43.7913 75.9403 43.5163 76.439 43.322C76.9377 43.1277 77.495 43.0305 78.111 43.0305C78.4227 43.0305 78.7123 43.0543 78.98 43.102C79.2477 43.146 79.4952 43.212 79.7225 43.3C79.9498 43.3843 80.1607 43.4888 80.355 43.6135C80.5493 43.7345 80.7308 43.872 80.8995 44.026L80.597 44.51C80.5493 44.5833 80.487 44.631 80.41 44.653C80.3367 44.6713 80.2542 44.653 80.1625 44.598C80.0745 44.5467 79.9737 44.4843 79.86 44.411C79.7463 44.3377 79.607 44.268 79.442 44.202C79.2807 44.1323 79.0882 44.0737 78.8645 44.026C78.6445 43.9783 78.3823 43.9545 78.078 43.9545C77.6343 43.9545 77.2328 44.0278 76.8735 44.1745C76.5142 44.3175 76.208 44.5247 75.955 44.796C75.702 45.0637 75.5077 45.39 75.372 45.775C75.2363 46.1563 75.1685 46.5853 75.1685 47.062C75.1685 47.557 75.2382 48.0007 75.3775 48.393C75.5205 48.7817 75.7222 49.1135 75.9825 49.3885C76.2465 49.6598 76.5655 49.867 76.9395 50.01C77.3135 50.153 77.7333 50.2245 78.199 50.2245C78.5657 50.2245 78.8902 50.1842 79.1725 50.1035C79.4585 50.0192 79.7372 49.9037 80.0085 49.757V48.0245H78.782C78.7123 48.0245 78.6555 48.0043 78.6115 47.964C78.5712 47.9237 78.551 47.8742 78.551 47.8155V47.2105H80.971ZM83.6712 51H82.6042V43.1185H83.6712V51ZM90.5492 50.131L90.5437 51H85.6872V43.1185H90.5437V43.9875H86.7542V46.6055H89.8232V47.4415H86.7542V50.131H90.5492ZM96.0673 44.3505C96.0343 44.4055 95.9976 44.4477 95.9573 44.477C95.9206 44.5027 95.8748 44.5155 95.8198 44.5155C95.7575 44.5155 95.6841 44.4843 95.5998 44.422C95.5155 44.3597 95.4091 44.2918 95.2808 44.2185C95.1561 44.1415 95.004 44.0718 94.8243 44.0095C94.6483 43.9472 94.4338 43.916 94.1808 43.916C93.9425 43.916 93.7316 43.949 93.5483 44.015C93.3686 44.0773 93.2165 44.1635 93.0918 44.2735C92.9708 44.3835 92.8791 44.5137 92.8168 44.664C92.7545 44.8107 92.7233 44.9702 92.7233 45.1425C92.7233 45.3625 92.7765 45.5458 92.8828 45.6925C92.9928 45.8355 93.1358 45.9583 93.3118 46.061C93.4915 46.1637 93.6931 46.2535 93.9168 46.3305C94.1441 46.4038 94.3751 46.4808 94.6098 46.5615C94.8481 46.6422 95.0791 46.7338 95.3028 46.8365C95.5301 46.9355 95.7318 47.062 95.9078 47.216C96.0875 47.37 96.2305 47.5588 96.3368 47.7825C96.4468 48.0062 96.5018 48.2812 96.5018 48.6075C96.5018 48.9522 96.4431 49.2767 96.3258 49.581C96.2085 49.8817 96.0361 50.1438 95.8088 50.3675C95.5851 50.5912 95.3083 50.7672 94.9783 50.8955C94.652 51.0238 94.2798 51.088 93.8618 51.088C93.3485 51.088 92.8828 50.9963 92.4648 50.813C92.0468 50.626 91.6893 50.3748 91.3923 50.0595L91.7003 49.5535C91.7296 49.5132 91.7645 49.4802 91.8048 49.4545C91.8488 49.4252 91.8965 49.4105 91.9478 49.4105C91.9955 49.4105 92.0486 49.4307 92.1073 49.471C92.1696 49.5077 92.2393 49.5553 92.3163 49.614C92.3933 49.6727 92.4813 49.7368 92.5803 49.8065C92.6793 49.8762 92.7911 49.9403 92.9158 49.999C93.0441 50.0577 93.189 50.1072 93.3503 50.1475C93.5116 50.1842 93.6931 50.2025 93.8948 50.2025C94.1478 50.2025 94.3733 50.1677 94.5713 50.098C94.7693 50.0283 94.9361 49.9312 95.0718 49.8065C95.2111 49.6782 95.3175 49.526 95.3908 49.35C95.4641 49.174 95.5008 48.9778 95.5008 48.7615C95.5008 48.5232 95.4458 48.3288 95.3358 48.1785C95.2295 48.0245 95.0883 47.8962 94.9123 47.7935C94.7363 47.6908 94.5346 47.6047 94.3073 47.535C94.08 47.4617 93.849 47.3883 93.6143 47.315C93.3796 47.238 93.1486 47.15 92.9213 47.051C92.694 46.952 92.4923 46.8237 92.3163 46.666C92.1403 46.5083 91.9973 46.3122 91.8873 46.0775C91.781 45.8392 91.7278 45.5458 91.7278 45.1975C91.7278 44.9188 91.781 44.6493 91.8873 44.389C91.9973 44.1287 92.155 43.8977 92.3603 43.696C92.5693 43.4943 92.8241 43.333 93.1248 43.212C93.4291 43.091 93.7775 43.0305 94.1698 43.0305C94.6098 43.0305 95.0095 43.1002 95.3688 43.2395C95.7318 43.3788 96.0508 43.5805 96.3258 43.8445L96.0673 44.3505ZM103.589 50.153C103.894 50.153 104.156 50.1182 104.376 50.0485C104.596 49.9788 104.776 49.8817 104.915 49.757C105.058 49.6287 105.162 49.4783 105.228 49.306C105.294 49.13 105.327 48.9375 105.327 48.7285C105.327 48.3215 105.183 48.0007 104.893 47.766C104.603 47.5277 104.169 47.4085 103.589 47.4085H101.884V50.153H103.589ZM101.884 43.96V46.6495H103.292C103.593 46.6495 103.853 46.6165 104.073 46.5505C104.297 46.4845 104.48 46.3928 104.623 46.2755C104.77 46.1582 104.878 46.017 104.948 45.852C105.018 45.6833 105.052 45.5 105.052 45.302C105.052 44.8363 104.913 44.4972 104.634 44.2845C104.356 44.0682 103.923 43.96 103.336 43.96H101.884ZM103.336 43.1185C103.82 43.1185 104.237 43.1662 104.585 43.2615C104.937 43.3568 105.225 43.4925 105.448 43.6685C105.676 43.8445 105.843 44.0608 105.949 44.3175C106.055 44.5705 106.108 44.8565 106.108 45.1755C106.108 45.3698 106.077 45.5568 106.015 45.7365C105.956 45.9125 105.866 46.0775 105.745 46.2315C105.624 46.3855 105.47 46.5248 105.283 46.6495C105.1 46.7705 104.884 46.8695 104.634 46.9465C105.214 47.0565 105.648 47.2637 105.938 47.568C106.231 47.8687 106.378 48.2647 106.378 48.756C106.378 49.0897 106.316 49.394 106.191 49.669C106.07 49.944 105.89 50.1805 105.652 50.3785C105.417 50.5765 105.128 50.7305 104.783 50.8405C104.438 50.9468 104.046 51 103.606 51H100.823V43.1185H103.336ZM110.976 50.153C111.302 50.153 111.594 50.098 111.85 49.988C112.107 49.878 112.323 49.724 112.499 49.526C112.679 49.328 112.815 49.0915 112.906 48.8165C113.002 48.5415 113.049 48.239 113.049 47.909V43.1185H114.111V47.909C114.111 48.3637 114.037 48.7853 113.891 49.174C113.748 49.5627 113.541 49.9 113.269 50.186C113.002 50.4683 112.673 50.6902 112.285 50.8515C111.896 51.0128 111.46 51.0935 110.976 51.0935C110.492 51.0935 110.055 51.0128 109.667 50.8515C109.278 50.6902 108.948 50.4683 108.677 50.186C108.405 49.9 108.196 49.5627 108.05 49.174C107.907 48.7853 107.835 48.3637 107.835 47.909V43.1185H108.897V47.9035C108.897 48.2335 108.943 48.536 109.034 48.811C109.13 49.086 109.265 49.3225 109.441 49.5205C109.621 49.7185 109.839 49.8743 110.096 49.988C110.356 50.098 110.649 50.153 110.976 50.153ZM120.055 44.3505C120.022 44.4055 119.985 44.4477 119.945 44.477C119.908 44.5027 119.862 44.5155 119.807 44.5155C119.745 44.5155 119.671 44.4843 119.587 44.422C119.503 44.3597 119.396 44.2918 119.268 44.2185C119.143 44.1415 118.991 44.0718 118.812 44.0095C118.636 43.9472 118.421 43.916 118.168 43.916C117.93 43.916 117.719 43.949 117.536 44.015C117.356 44.0773 117.204 44.1635 117.079 44.2735C116.958 44.3835 116.866 44.5137 116.804 44.664C116.742 44.8107 116.711 44.9702 116.711 45.1425C116.711 45.3625 116.764 45.5458 116.87 45.6925C116.98 45.8355 117.123 45.9583 117.299 46.061C117.479 46.1637 117.68 46.2535 117.904 46.3305C118.131 46.4038 118.362 46.4808 118.597 46.5615C118.835 46.6422 119.066 46.7338 119.29 46.8365C119.517 46.9355 119.719 47.062 119.895 47.216C120.075 47.37 120.218 47.5588 120.324 47.7825C120.434 48.0062 120.489 48.2812 120.489 48.6075C120.489 48.9522 120.43 49.2767 120.313 49.581C120.196 49.8817 120.023 50.1438 119.796 50.3675C119.572 50.5912 119.296 50.7672 118.966 50.8955C118.639 51.0238 118.267 51.088 117.849 51.088C117.336 51.088 116.87 50.9963 116.452 50.813C116.034 50.626 115.677 50.3748 115.38 50.0595L115.688 49.5535C115.717 49.5132 115.752 49.4802 115.792 49.4545C115.836 49.4252 115.884 49.4105 115.935 49.4105C115.983 49.4105 116.036 49.4307 116.095 49.471C116.157 49.5077 116.227 49.5553 116.304 49.614C116.381 49.6727 116.469 49.7368 116.568 49.8065C116.667 49.8762 116.778 49.9403 116.903 49.999C117.031 50.0577 117.176 50.1072 117.338 50.1475C117.499 50.1842 117.68 50.2025 117.882 50.2025C118.135 50.2025 118.361 50.1677 118.559 50.098C118.757 50.0283 118.923 49.9312 119.059 49.8065C119.198 49.6782 119.305 49.526 119.378 49.35C119.451 49.174 119.488 48.9778 119.488 48.7615C119.488 48.5232 119.433 48.3288 119.323 48.1785C119.217 48.0245 119.076 47.8962 118.9 47.7935C118.724 47.6908 118.522 47.6047 118.295 47.535C118.067 47.4617 117.836 47.3883 117.602 47.315C117.367 47.238 117.136 47.15 116.909 47.051C116.681 46.952 116.48 46.8237 116.304 46.666C116.128 46.5083 115.985 46.3122 115.875 46.0775C115.768 45.8392 115.715 45.5458 115.715 45.1975C115.715 44.9188 115.768 44.6493 115.875 44.389C115.985 44.1287 116.142 43.8977 116.348 43.696C116.557 43.4943 116.811 43.333 117.112 43.212C117.416 43.091 117.765 43.0305 118.157 43.0305C118.597 43.0305 118.997 43.1002 119.356 43.2395C119.719 43.3788 120.038 43.5805 120.313 43.8445L120.055 44.3505ZM123.063 51H121.996V43.1185H123.063V51ZM131.464 43.1185V51H130.931C130.846 51 130.775 50.9853 130.716 50.956C130.661 50.9267 130.606 50.8772 130.551 50.8075L125.992 44.8675C125.999 44.9592 126.005 45.049 126.008 45.137C126.012 45.225 126.014 45.3075 126.014 45.3845V51H125.079V43.1185H125.629C125.676 43.1185 125.717 43.1222 125.75 43.1295C125.783 43.1332 125.812 43.1423 125.838 43.157C125.863 43.168 125.889 43.1863 125.915 43.212C125.94 43.234 125.968 43.2633 125.997 43.3L130.557 49.2345C130.549 49.1392 130.542 49.0475 130.535 48.9595C130.531 48.8678 130.529 48.7817 130.529 48.701V43.1185H131.464ZM138.341 50.131L138.336 51H133.479V43.1185H138.336V43.9875H134.546V46.6055H137.615V47.4415H134.546V50.131H138.341ZM143.859 44.3505C143.826 44.4055 143.79 44.4477 143.749 44.477C143.713 44.5027 143.667 44.5155 143.612 44.5155C143.549 44.5155 143.476 44.4843 143.392 44.422C143.307 44.3597 143.201 44.2918 143.073 44.2185C142.948 44.1415 142.796 44.0718 142.616 44.0095C142.44 43.9472 142.226 43.916 141.973 43.916C141.734 43.916 141.524 43.949 141.34 44.015C141.161 44.0773 141.008 44.1635 140.884 44.2735C140.763 44.3835 140.671 44.5137 140.609 44.664C140.546 44.8107 140.515 44.9702 140.515 45.1425C140.515 45.3625 140.568 45.5458 140.675 45.6925C140.785 45.8355 140.928 45.9583 141.104 46.061C141.283 46.1637 141.485 46.2535 141.709 46.3305C141.936 46.4038 142.167 46.4808 142.402 46.5615C142.64 46.6422 142.871 46.7338 143.095 46.8365C143.322 46.9355 143.524 47.062 143.7 47.216C143.879 47.37 144.022 47.5588 144.129 47.7825C144.239 48.0062 144.294 48.2812 144.294 48.6075C144.294 48.9522 144.235 49.2767 144.118 49.581C144 49.8817 143.828 50.1438 143.601 50.3675C143.377 50.5912 143.1 50.7672 142.77 50.8955C142.444 51.0238 142.072 51.088 141.654 51.088C141.14 51.088 140.675 50.9963 140.257 50.813C139.839 50.626 139.481 50.3748 139.184 50.0595L139.492 49.5535C139.522 49.5132 139.556 49.4802 139.597 49.4545C139.641 49.4252 139.688 49.4105 139.74 49.4105C139.787 49.4105 139.841 49.4307 139.899 49.471C139.962 49.5077 140.031 49.5553 140.108 49.614C140.185 49.6727 140.273 49.7368 140.372 49.8065C140.471 49.8762 140.583 49.9403 140.708 49.999C140.836 50.0577 140.981 50.1072 141.142 50.1475C141.304 50.1842 141.485 50.2025 141.687 50.2025C141.94 50.2025 142.165 50.1677 142.363 50.098C142.561 50.0283 142.728 49.9312 142.864 49.8065C143.003 49.6782 143.109 49.526 143.183 49.35C143.256 49.174 143.293 48.9778 143.293 48.7615C143.293 48.5232 143.238 48.3288 143.128 48.1785C143.021 48.0245 142.88 47.8962 142.704 47.7935C142.528 47.6908 142.327 47.6047 142.099 47.535C141.872 47.4617 141.641 47.3883 141.406 47.315C141.172 47.238 140.941 47.15 140.713 47.051C140.486 46.952 140.284 46.8237 140.108 46.666C139.932 46.5083 139.789 46.3122 139.679 46.0775C139.573 45.8392 139.52 45.5458 139.52 45.1975C139.52 44.9188 139.573 44.6493 139.679 44.389C139.789 44.1287 139.947 43.8977 140.152 43.696C140.361 43.4943 140.616 43.333 140.917 43.212C141.221 43.091 141.569 43.0305 141.962 43.0305C142.402 43.0305 142.801 43.1002 143.161 43.2395C143.524 43.3788 143.843 43.5805 144.118 43.8445L143.859 44.3505ZM149.832 44.3505C149.799 44.4055 149.762 44.4477 149.722 44.477C149.685 44.5027 149.639 44.5155 149.584 44.5155C149.522 44.5155 149.449 44.4843 149.364 44.422C149.28 44.3597 149.174 44.2918 149.045 44.2185C148.921 44.1415 148.769 44.0718 148.589 44.0095C148.413 43.9472 148.198 43.916 147.945 43.916C147.707 43.916 147.496 43.949 147.313 44.015C147.133 44.0773 146.981 44.1635 146.856 44.2735C146.735 44.3835 146.644 44.5137 146.581 44.664C146.519 44.8107 146.488 44.9702 146.488 45.1425C146.488 45.3625 146.541 45.5458 146.647 45.6925C146.757 45.8355 146.9 45.9583 147.076 46.061C147.256 46.1637 147.458 46.2535 147.681 46.3305C147.909 46.4038 148.14 46.4808 148.374 46.5615C148.613 46.6422 148.844 46.7338 149.067 46.8365C149.295 46.9355 149.496 47.062 149.672 47.216C149.852 47.37 149.995 47.5588 150.101 47.7825C150.211 48.0062 150.266 48.2812 150.266 48.6075C150.266 48.9522 150.208 49.2767 150.09 49.581C149.973 49.8817 149.801 50.1438 149.573 50.3675C149.35 50.5912 149.073 50.7672 148.743 50.8955C148.417 51.0238 148.044 51.088 147.626 51.088C147.113 51.088 146.647 50.9963 146.229 50.813C145.811 50.626 145.454 50.3748 145.157 50.0595L145.465 49.5535C145.494 49.5132 145.529 49.4802 145.569 49.4545C145.613 49.4252 145.661 49.4105 145.712 49.4105C145.76 49.4105 145.813 49.4307 145.872 49.471C145.934 49.5077 146.004 49.5553 146.081 49.614C146.158 49.6727 146.246 49.7368 146.345 49.8065C146.444 49.8762 146.556 49.9403 146.68 49.999C146.809 50.0577 146.954 50.1072 147.115 50.1475C147.276 50.1842 147.458 50.2025 147.659 50.2025C147.912 50.2025 148.138 50.1677 148.336 50.098C148.534 50.0283 148.701 49.9312 148.836 49.8065C148.976 49.6782 149.082 49.526 149.155 49.35C149.229 49.174 149.265 48.9778 149.265 48.7615C149.265 48.5232 149.21 48.3288 149.1 48.1785C148.994 48.0245 148.853 47.8962 148.677 47.7935C148.501 47.6908 148.299 47.6047 148.072 47.535C147.845 47.4617 147.614 47.3883 147.379 47.315C147.144 47.238 146.913 47.15 146.686 47.051C146.459 46.952 146.257 46.8237 146.081 46.666C145.905 46.5083 145.762 46.3122 145.652 46.0775C145.546 45.8392 145.492 45.5458 145.492 45.1975C145.492 44.9188 145.546 44.6493 145.652 44.389C145.762 44.1287 145.92 43.8977 146.125 43.696C146.334 43.4943 146.589 43.333 146.889 43.212C147.194 43.091 147.542 43.0305 147.934 43.0305C148.374 43.0305 148.774 43.1002 149.133 43.2395C149.496 43.3788 149.815 43.5805 150.09 43.8445L149.832 44.3505Z" fill="#A6A6A6"/>
</svg>
